<svg id="Layer_1" data-name="Layer 1" xmlns="http://www.w3.org/2000/svg" viewBox="0 0 846 846">
  <defs>
    <style>
      .cls-1 {
        fill: #d99400;
      }

      .cls-2 {
        fill: none;
        stroke: #000;
        stroke-miterlimit: 10;
      }
    </style>
  </defs>
  <g>
    <path class="cls-1" d="M8048.14,7060.26q-17.42-15-52.8-15h-88.8v121.8h88.8q70.2,0,70.2-60.6Q8065.54,7075.28,8048.14,7060.26ZM7863,6762.86c-233.34,0-422.5,189.16-422.5,422.5s189.16,422.5,422.5,422.5,422.5-189.16,422.5-422.5S8096.31,6762.86,7863,6762.86Zm-131,634h-93.6v-423H7732Zm382.79-193.8q-38.4,34.8-107.4,34.8h-100.8v159h-93.6v-423h194.4q69,0,107.4,34.8t38.4,97.2Q8153.14,7168.28,8114.74,7203.06Z" transform="translate(-7439.97 -6762.36)"/>
    <path class="cls-2" d="M8048.14,7060.26q-17.42-15-52.8-15h-88.8v121.8h88.8q70.2,0,70.2-60.6Q8065.54,7075.28,8048.14,7060.26ZM7863,6762.86c-233.34,0-422.5,189.16-422.5,422.5s189.16,422.5,422.5,422.5,422.5-189.16,422.5-422.5S8096.31,6762.86,7863,6762.86Zm-131,634h-93.6v-423H7732Zm382.79-193.8q-38.4,34.8-107.4,34.8h-100.8v159h-93.6v-423h194.4q69,0,107.4,34.8t38.4,97.2Q8153.14,7168.28,8114.74,7203.06Z" transform="translate(-7439.97 -6762.36)"/>
  </g>
</svg>
