<svg id="Layer_1" data-name="Layer 1" xmlns="http://www.w3.org/2000/svg" viewBox="0 0 1367.03 328.83">
  <g>
    <path fill="#333333" d="M1003.75-272.82c.59,7.59-4,13.2-8.62,18.68-7.42,8.88-17.75,13.37-28.17,17.37-10.72,4.12-21.66,7.66-32.51,11.43-5.09,1.77-5.82,3.11-2.48,7.44,9.55,12.37,19.2,24.68,29.23,36.66,8.53,10.2,17.63,19.94,26.54,29.82,1.55,1.72,3.88,2.85,5.08,4.73,1.39,2.17,3,5.16,2.5,7.27-.44,1.78-3.73,3.74-6,4-7.5,1-13.77-3-20.2-6.11-.59-.28-1-.91-1.61-1.17-17.79-7.78-28-23.14-38.49-38.27-4.92-7.12-9.89-14.2-14.7-21.39-2.27-3.38-5.39-4.07-9.11-3.87-3.46.19-4.56,2.85-5.15,5.32-2,8.39-3.37,16.95-5.48,25.31A92.19,92.19,0,0,1,889-159.66c-2.39,5.22-8.2,7-13.62,4.85-4.72-1.84-6.3-5.34-4.84-11.53,2.62-11.16,5.47-22.27,8.06-33.44,1.11-4.81,1.41-9.84,2.78-14.56,4.51-15.45,9.34-30.81,14-46.21.68-2.22,1.46-4.42,2-6.68,1.5-6.63.09-9.4-5.81-12.6-2.44-1.33-4.47-3.44-7-4.61-1.7-.8-4.23-1.4-5.77-.71-16.39,7.35-32.67,15-49,22.53-4.08,1.89-8.31,3.55-12.09,5.92-2.22,1.4-4.58,3.72-5.33,6.11-2.13,6.81-3.44,13.88-5.14,20.83-.8,3.3.64,5.14,3.78,4.63,8-1.29,16-3,23.92-4.52,4.73-.92,9.43-2.14,14.2-2.74,5.66-.72,8.18,2.93,6.33,8.43a15.21,15.21,0,0,1-9.52,10.05c-12,4.72-23.78,10.16-35.75,15.06-11.25,4.62-15.92,13.27-16.63,24.95-.52,8.63-2.16,9.8,9.4,8,14.14-2.2,28.3-4.27,42.47-6.34,3.48-.51,8.66,3.71,9.35,7.45.62,3.38-1.52,5.71-6.2,7.08-21.19,6.21-42.34,12.51-63.55,18.63-3.3,1-6.89,1.87-10.23,1.57-7.59-.67-10.62-6-7.77-13.11,5.24-13,10.92-25.86,13.43-39.85,1.67-9.3,4-18.49,6.3-27.67,2.06-8.22,4.66-16.31,6.65-24.55a69.85,69.85,0,0,0,1.4-11.86c.28-4.18-2.12-6.43-6-7.28-.49-.11-1-.17-1.47-.28-3.54-.78-7-2-7.54-6.1-.52-3.86,3-9,6.57-10.38a3.8,3.8,0,0,1,.47-.18Q820.1-288.89,853.28-299c4.62-1.41,9.07-3.53,13.76-4.46,7.64-1.5,15-4.24,23.21-3.18,5.44.69,11.2-.95,16.8-1.7,12.33-1.65,24.62-4.31,37-4.81,8.81-.37,17.78,1.87,26.58,3.44,3.87.69,7.43,2.94,11.28,3.92C995-302.48,1004.44-284.46,1003.75-272.82Zm-59.33-11.3v-.11c-4.49,0-9-.07-13.48,0-6.82.12-8.28,1.1-9.89,7.47-2.57,10.17-5,20.38-7.29,30.61-1.24,5.48.08,7,5.47,5.64s10.18-3.77,15.38-5.3a66.57,66.57,0,0,0,31.93-20.11c3.11-3.54,4.48-7.1,3-11.31-1.61-4.48-5.37-6.7-10.09-6.86C954.42-284.25,949.42-284.12,944.42-284.12Z" transform="translate(-305.38 370.55)"/>
    <path fill="#333333" d="M608.6-241.29c0,13.65-.27,27.3.07,40.93.39,15.76.65,31.59,5.81,46.77,1.63,4.79.81,8.49-3.29,12-2.51,2.12-3.91,5.57-5.78,8.43-.27.41-.3,1-.63,1.35-1.88,1.78-3.82,3.5-5.74,5.24-1-2.26-2.73-4.45-3-6.81-.71-5.93-.86-11.93-1.12-17.91-.36-8.29-2.58-10.25-10.78-9-5.1.77-10.16,1.86-15.26,2.57a12.59,12.59,0,0,0-9.8,6.93c-3.48,6.53-6.69,13.21-10,19.84-.37.74-.54,1.58-.87,2.34-4,9-6,9.67-14.64,4.93-1.43-.78-3.31-.76-5-1.1.35,1.82.26,3.9,1.14,5.4,1.76,3,4.28,5.56,6,8.56,1,1.69,2.1,4.49,1.37,5.71a8.47,8.47,0,0,1-5.8,3.74,12.75,12.75,0,0,1-7.9-2.28,155.29,155.29,0,0,1-17.85-15c-12-12.21-23.44-25-35.22-37.37a45.93,45.93,0,0,0-7-5.64c-4.3-3-6.67-2.37-8.07,2.7-2.45,8.81-4.18,17.83-6.81,26.58-2.43,8.06-5.56,15.92-8.65,23.76-.5,1.28-2.39,2-3.63,3L433.7-109c-4-5.34-3.33-11.5-2.19-17.3,2.51-12.73,5.65-25.33,8.54-38a6.57,6.57,0,0,0,.41-1.43c-.24-15,6.14-28.55,8.91-42.88,1.2-6.22,1.12-11.19-5-15.61-8.26-5.93-6.45-21.43,2.38-27,.41-.27,1-.72,1.32-.61,4.33,1.5,8.34-.65,12.49-1,5.36-.42,10.8,0,16.12-.74,15.39-2,30.63-.5,44.34,6.17,6.68,3.25,16.53,4.77,18.38,14.78.81,4.33,2.55,9,1.66,13-3.2,14.6-11.06,26.33-24.78,33.14-7,3.47-14.4,6.07-21.67,8.93-7.43,2.91-8.66,4.78-6.67,10.78a4.82,4.82,0,0,0,.85,1.71Q502-151,515.19-136.94c1.71,1.82,3.26,3.79,5,5.58,4,4.06,6.54,3.71,9.17-1.38,2.21-4.28,4.12-8.72,6.28-13,3.87-7.72,8.06-15.28,11.7-23.11q13.11-28.27,25.81-56.74c4.73-10.62,9-21.46,13.62-32.11a41.61,41.61,0,0,1,5-8c2.93-3.92,8.85-3.59,12.24-.08,5.84,6.06,5.79,13.46,5.6,21,0,1.17,0,2.34,0,3.5ZM472.54-188.37c2.45-.41,4.91-.77,7.35-1.24,9.51-1.82,17.58-6.79,25.68-11.71s11.69-12.36,12.66-21.38a4.44,4.44,0,0,0-1.07-3.44,32.31,32.31,0,0,0-7.1-4.48,39.4,39.4,0,0,0-29.61-1.09c-4.3,1.53-9.33,3.75-9.37,10,0,1.25-.93,2.48-1.25,3.76-1.74,7.07-4,14.08-5,21.25C464-190.34,466.2-188.61,472.54-188.37Zm120.59-15.2.93-.2c-1.21-3.41-2.35-6.84-3.68-10.2a23.71,23.71,0,0,0-2.2-3.61c-1.19,1-2.75,1.83-3.52,3.1A72,72,0,0,0,579.21-204q-5.15,13.17-9.69,26.58c-1,3.09.56,4.66,3.6,3.67,6.13-2,12.17-4.31,18.23-6.54,2.28-.85,3.19-2.3,2.92-5C593.65-191.35,593.48-197.47,593.13-203.57Z" transform="translate(-305.38 370.55)"/>
    <path fill="#333333" d="M670-139.45c1.74-7.89,3.77-15.73,5.15-23.68,1.27-7.34,1.92-14.79,2.73-22.21,1.32-12.17,2.6-24.34,3.72-36.54.12-1.39-.64-3.88-1.48-4.13-1.47-.42-3.37.38-5,1-.65.24-1.07,1.24-1.46,2C663.22-204,652.49-185,642.56-165.66c-4.9,9.57-8.32,19.89-12.43,29.86a56.05,56.05,0,0,1-3.42,7.75c-.75,1.24-2.51,1.86-3.82,2.77-1-1.59-2.88-3.15-2.92-4.75a146.94,146.94,0,0,1,.72-16.38c.56-6.25,2.19-12.5,2-18.72-.29-13.1,5.19-23.55,12.68-33.7,6.1-8.26,11.25-17.22,16.67-26,7.26-11.71,14.4-23.49,21.52-35.27,4.78-7.91,9.28-16,14.28-23.76a9,9,0,0,1,5.73-3.64c6.16-.73,12.61,5.7,12.1,11.95-1,12.26-2.39,24.49-3.42,36.76-.77,9.27-1.32,18.57-1.75,27.86-.07,1.54,1,4.45,1.55,4.45,1.94,0,4.52-.42,5.69-1.73,2.63-3,4.63-6.48,6.76-9.86,9.5-15,19.2-29.9,28.31-45.14A132,132,0,0,0,753-284.72c2.94-7.89,7.88-12.88,16.06-14.73,3.55-.8,6.28.2,6.51,4.05.57,9.8,2.59,19.66-2.6,29.15-2.08,3.81-2.63,8.54-3.43,12.94-4.84,26.35-9.86,52.67-14.14,79.11-1.64,10.1-1.51,20.49-2.19,30.75-.27,4.15-.24,8.35-.91,12.43-1.26,7.68-15.29,16-22.49,13.13-2-.82-3.73-3.67-4.6-6-2.27-5.94-.21-11.82,1.27-17.61,4.86-19,9.91-37.94,14.66-57,1.68-6.76,2.83-13.66,4-20.54.22-1.34-.43-3.8-1.28-4.12-1.24-.46-3.11.37-4.55,1a5.86,5.86,0,0,0-1.95,2.23C730.53-209.4,723.69-199,717-188.48c-4.92,7.66-9.94,15.29-14.45,23.2-2.08,3.66-2.91,8-4.57,11.95-2.92,6.88-5.92,13.74-9.15,20.48a24,24,0,0,1-4.62,6.39c-4.59,4.63-9.54,3.42-11.65-2.93-1-3.12-1.25-6.5-1.84-9.77Z" transform="translate(-305.38 370.55)"/>
    <path fill="#333333" d="M1572.25-157.69c1-3.51,2.22-7.95,3.66-12.32,2.18-6.62,4.6-13.16,6.73-19.8.34-1-.29-2.39-.47-3.6-1.24.25-2.83.09-3.67.81-11.19,9.55-24.84,14.6-37.77,21-6,3-12,5.71-17.81,9-6.84,3.88-14.29,1.41-16-6.85s.12-15.32,3.57-22.6a211.42,211.42,0,0,0,9-22.33c2.62-7.68,4.43-15.64,6.71-23.44,2.7-9.24,5.55-18.43,8.3-27.66q6.32-21.24,12.58-42.5c3.31-11.33,6.72-22.63,9.66-34.06,1.36-5.29,12.18-11.57,18.33-10.52,1.36.23,3.37,3,3.25,4.48-.49,6.26-1,12.65-2.72,18.67-3.33,11.84-7.54,23.42-11.2,35.17q-4.61,14.76-8.75,29.67-7.83,27.87-15.41,55.8c-1,3.69-1.61,7.48-2.5,11.21-.83,3.54,1,4.66,4,4.41a41.8,41.8,0,0,0,7.36-1.34c6.54-1.79,13-3.9,19.58-5.48,1.44-.35,3.4.79,4.93,1.61,8.34,4.45,10.61,3,14.71-5.46,5.8-12.08,6.88-25.3,10.59-37.87,1.82-6.16,2.29-12.71,3.92-18.94,1.3-4.93,3.51-9.62,5.17-14.46,5-14.78,10.12-29.55,15-44.39,2-6,4.79-12.17,4.77-18.25,0-9.12,5.48-15.79,8.52-23.35,2.22-5.53,8.86-8.87,15.58-9.41,3.91-.32,6.19,2.28,5.76,6.29a39.91,39.91,0,0,1-1.6,7.82c-5,15.35-10.17,30.61-15,46-4.33,13.8-8.28,27.72-12.37,41.6q-6.23,21.06-12.4,42.14c-3.46,11.81-7,23.61-10.28,35.47a56.07,56.07,0,0,0-1.61,9.85c-.45,4.65.34,5.44,5,4.36,8.09-1.86,16-4.75,24.19-6,9.3-1.39,18.8-1.5,28.23-1.95a12.86,12.86,0,0,1,5.28,1.29c3.36,1.39,5.33,3.89,5.24,7.72s-2.66,5.56-5.87,6.53c-12.26,3.71-24.6,7.17-36.8,11.08-9,2.89-17.84,6.37-26.77,9.53-6.09,2.16-12.16,4.34-18.32,6.27-4.12,1.29-8.87-1.52-10.58-6.26C1573.18-151.22,1573-153.93,1572.25-157.69Z" transform="translate(-305.38 370.55)"/>
    <path fill="#333333" d="M369.39-263c-.52,3.07-1.19,8.17-2.27,13.18-2.77,12.79-5.71,25.54-8.62,38.3-.33,1.44-1.32,2.83-1.28,4.22a41.81,41.81,0,0,0,1.2,6.49c1.8-.38,4.06-.2,5.3-1.24a118.17,118.17,0,0,0,11.09-10.61c9.91-10.78,19.62-21.74,29.46-32.58,9.6-10.56,19.28-21,28.9-31.6a9.93,9.93,0,0,1,14-1.09,7.5,7.5,0,0,0,1.62,1.08c6.59,2.88,6.45,3.95,2.85,10.11-6.43,11-16.71,18.41-24.64,28-9.67,11.64-19.52,23.13-29.28,34.7q-12.56,14.87-25.07,29.77c-1.6,1.9-2.9,4.12-4.71,5.78-2.22,2-2.13,4.05-.61,6.18,7.28,10.11,14.68,20.13,21.91,30.27,5,7,9.82,14.21,14.72,21.31,7.85,11.36,15.86,22.62,23.49,34.12,4.29,6.46,8.13,13.23,11.85,20,2.26,4.14.13,9.55-4.52,12.95-3.85,2.81-6.28,2.7-10.48-1.53-4.64-4.67-8.91-9.73-13.28-14.67-3.08-3.48-6.23-6.92-9-10.62-2.39-3.16-4.26-6.71-6.48-10-6.5-9.65-12.1-20.14-19.87-28.64-8.51-9.31-14-20.43-21.68-30.16-1.33-1.7-4.06-4.33-5-3.92a9.53,9.53,0,0,0-4.65,5.41c-1.67,5.7-2.58,11.63-3.87,17.45s-2.92,11.57-4,17.43c-1.7,9.38-3,18.84-4.6,28.24a41,41,0,0,1-2.49,8c-2.79,7-3.29,15-9.27,20.61-2.89,2.71-6.36,5-9.72,2.89-2.52-1.61-5.15-5.5-5.05-8.28a145.13,145.13,0,0,1,3.16-25.16c2.73-12.61,6.5-25,9.45-37.56,4.05-17.25,8-34.55,11.52-51.91,2.36-11.53,3.83-23.23,6-34.8,2.22-12.08,5.11-24.06,7-36.18,1.52-9.5,1.4-19.31,5.18-28.33a44.3,44.3,0,0,1,6.56-10.85c2.23-2.72,4.86-3.39,8.29-.15C368.16-271,368.51-271.43,369.39-263Z" transform="translate(-305.38 370.55)"/>
    <path fill="#333333" d="M1348.29-271.68c1.11,14.9,2.13,29.81,3.37,44.7.24,2.85.37,6.24,4.38,7,3.82.69,6.88-.28,9-3.78,5.94-10,11.85-20,17.92-29.94,7.11-11.62,14.41-23.14,21.55-34.75,3-4.81,5.62-9.8,8.62-14.59a26.27,26.27,0,0,1,4.29-4.85c4.36-4.18,7.57-3.46,9.56,2.34,2.44,7.12,2.28,14-2.33,20.45-4.44,6.23-8.85,12.51-12.84,19-8.4,13.73-16.72,27.52-24.67,41.51-7.39,13-14.31,26.26-21.32,39.47-5.36,10.08-10.51,20.28-15.81,30.39a16.84,16.84,0,0,1-2.32,3.2c-4.6,5.27-8.19,5-10.67-1.7a64.58,64.58,0,0,1-3.63-16.86c-1.37-15.74-2.26-31.51-3.16-47.28-.17-2.82-.59-4.86-3.77-5.45s-5.22.37-6.47,3.27c-4,9.32-8.1,18.62-12,28-4.93,11.79-8.34,24.29-16.07,34.75a79.74,79.74,0,0,1-8.87,10c-2.55,2.45-5.17,1-6-2.63-3.17-14.33-2.94-29-4-43.46-1.67-22.22-3.47-44.44-5.67-66.61-1.06-10.56-3.18-21-4.8-31.51-.82-5.3-.25-10.08,3.67-14.35,3.11-3.39,6.3-4.18,10.2-2.18,5.61,2.86,9.23,6.63,9.5,13.79.78,21.27,2.2,42.52,3.65,63.76.15,2.32,1.51,5.71,3.27,6.51,3.42,1.56,7.58,1.64,10.73-1.4a18.26,18.26,0,0,0,3.12-4.48c6.91-12.88,13.83-25.76,20.61-38.7,3.15-6,5.76-12.32,9.09-18.22,1.59-2.83,4.36-7.13,6.44-7.05,3.53.14,4.7,4.54,5,8.19.34,4.47.61,8.95.92,13.42Z" transform="translate(-305.38 370.55)"/>
    <path fill="#333333" d="M1168.27-297.5c13.52-.79,19.11,2.15,21.07,8.4.94,3,.73,5.8-2,7.6-4,2.64-7.95,5.57-12.35,7.26a408.54,408.54,0,0,1-52.77,16.66c-7.75,1.81-9.87,8.68-12.35,15-1.38,3.53-2.55,7.17-3.57,10.82-2.47,8.79-4.79,17.61-7.17,26.42-.91,3.34-2,6.65-2.65,10-.39,2-.74,4.53.18,6,.57.94,3.69.9,5.44.44,14.1-3.79,28.13-7.83,42.21-11.69,4.35-1.19,8.78-2.23,13.06.43,4.57,2.83,5.15,6.32,1.48,10.2a10.52,10.52,0,0,1-3.62,2.57c-9.29,3.63-18.77,6.8-27.9,10.77-7,3-13.54,7.05-20.29,10.61a93.27,93.27,0,0,1-9.27,4.77c-8.58,3.37-14.16,9.56-17.57,17.9-2,4.78.85,11,5.89,11,6.33,0,12.66-1.8,19-3,4.08-.79,8-2.29,12.13-2.83,7.08-.93,14.14-1.32,20.65-5,2.56-1.45,6.09-1.4,9.2-1.59s6.16.54,7.12,4.13c1,3.84-.8,6.56-4.22,8-6.56,2.85-13.33,5.24-19.81,8.27-11.74,5.49-23.33,11.3-35,17a11.79,11.79,0,0,1-3.68,1.44c-8.35.86-15.51,4.72-22.78,8.49a92,92,0,0,1-12,4.82c-5.93,2.06-12.43-1.44-13.2-7.63-.49-4-.73-8.82,1-12.21,4.83-9.45,6.29-19.76,9.3-29.67,3.71-12.2,8.68-24,13.06-36,2.39-6.54,4.19-13.34,7.11-19.63,7.18-15.49,11.24-31.93,15.88-48.22a10.61,10.61,0,0,0-2.08-10.2c-.4-.52-1-.91-1.41-1.41-7.67-8.61-4.83-20.22,5.64-25.36,4.89-2.39,9.81-2.87,15-3.05,12.92-.43,25.21-4.17,37.68-7C1153.85-295.17,1163.25-296.57,1168.27-297.5Z" transform="translate(-305.38 370.55)"/>
    <path fill="#333333" d="M1410.37-172.63c-.68-8.36,3.78-15.25,6.12-22.64,3.22-10.12,6.86-20.12,9.9-30.3,5.44-18.16,10.56-36.42,15.81-54.64.37-1.28.65-2.58,1-3.87,2.54-9.43,1.73-11.33-7-16.25-4.4-2.49-5.41-11.74-1.3-15.18a19.14,19.14,0,0,1,7.92-3.88c8.91-2,18-3.18,26.9-5.28,11.28-2.66,22.42-6,33.65-8.87,7.24-1.86,14.51-3.6,21.83-5.15,3.76-.8,5.54,1,6.44,4.93,2,8.6.61,12.05-9.48,17.09-8.43,4.21-17.56,7-26.37,10.45-10.63,4.15-21.74,7.39-30.52,15.2-1.78,1.59-3.68,3.56-4.39,5.73-2.81,8.54-5.2,17.21-7.66,25.86a21.88,21.88,0,0,0-.61,4.44c-.25,3.32,1,5.26,4.64,4.47,6.46-1.39,12.9-2.81,19.33-4.34,3.07-.72,6-2.19,9.13-2.41a14.19,14.19,0,0,1,7.52,1.69c3.57,2,3.87,5.21.55,7.6-3.74,2.68-8,4.64-12.17,6.7-9.06,4.51-18.28,8.67-27.23,13.38-5,2.67-8.07,7.3-9.52,12.9-1.29,5-2.78,9.93-4,14.94-1,4,1.34,6.31,5.24,5.08,15.66-5,31.28-10.05,46.91-15.09a36.71,36.71,0,0,1,5.25-1.57c8.48-1.41,10.64.46,10.07,9a5.56,5.56,0,0,1-2.54,3.93q-14.3,7-28.83,13.55c-10.72,4.8-21.68,9.09-32.28,14.14-5.16,2.47-9.73,6.18-14.58,9.3a71.31,71.31,0,0,1-8,4.93c-3.07,1.44-8.55-1.59-9.87-5.65C1411.18-165.7,1411-169.22,1410.37-172.63Z" transform="translate(-305.38 370.55)"/>
    <path fill="#333333" d="M1181.21-119c-1.66-.1-3.32-.19-5-.32-3.82-.31-6.06-2.46-5.55-6.22,1.07-7.88,2.17-15.8,4-23.52,3.29-13.88,6.85-27.7,10.82-41.4,3.88-13.42,8.53-26.62,12.6-40,2.87-9.47,5.3-19.08,8-28.61.63-2.24,1.53-4.39,2.16-6.62,3.38-12,6.78-24,10-36,1.21-4.48,6.45-7,12.25-5.63a7.4,7.4,0,0,1,5.2,9.58c-2.62,8.74-5.67,17.36-8,26.17-3.71,13.92-7,28-10.48,41.95-1.83,7.24-3.87,14.42-5.74,21.65q-3.84,14.73-7.55,29.5c-1.29,5.15-2.37,10.36-3.72,15.49-1,3.76.75,5.63,4.14,5.65,4.62,0,9.25-.55,13.87-.92,2.08-.17,4.15-.48,6.23-.7.49-.05,1.24.21,1.44,0,5.43-6.57,13-3.18,19.62-4a28.1,28.1,0,0,1,12.6,1.88c5.32,1.94,6.18,6.84,1.81,10.52-3.21,2.71-7.43,4.23-11.24,6.21s-7.23,4.08-11.09,5.45a49.28,49.28,0,0,1-11.07,2.29c-13,1.46-23.73,8.13-34.84,14.1-3.21,1.73-6.65,3-10,4.53C1181.54-118.34,1181.38-118.68,1181.21-119Z" transform="translate(-305.38 370.55)"/>
  </g>
</svg>
